<?xml version="1.0" encoding="UTF-8" standalone="no"?>
<!DOCTYPE svg PUBLIC "-//W3C//DTD SVG 1.1//EN"
 "http://www.w3.org/Graphics/SVG/1.1/DTD/svg11.dtd">
<!-- Generated by graphviz version 14.0.2 (20251019.1705)
 -->
<!-- Pages: 1 -->
<svg width="511pt" height="128pt"
 viewBox="0.00 0.00 511.00 128.00" xmlns="http://www.w3.org/2000/svg" xmlns:xlink="http://www.w3.org/1999/xlink">
<g id="graph0" class="graph" transform="scale(1 1) rotate(0) translate(4 124)">
<polygon fill="white" stroke="none" points="-4,4 -4,-124 506.5,-124 506.5,4 -4,4"/>
<!-- 4384437792 -->
<g id="node1" class="node">
<title>4384437792</title>
<polygon fill="none" stroke="black" points="2.25,-83.5 2.25,-119.5 82,-119.5 82,-83.5 2.25,-83.5"/>
<text xml:space="preserve" text-anchor="middle" x="42.12" y="-96.7" font-family="Times,serif" font-size="14.00">data 2.0000</text>
</g>
<!-- 4376266912* -->
<g id="node3" class="node">
<title>4376266912*</title>
<ellipse fill="none" stroke="black" cx="147.25" cy="-73.5" rx="27" ry="18"/>
<text xml:space="preserve" text-anchor="middle" x="147.25" y="-68.45" font-family="Times,serif" font-size="14.00">*</text>
</g>
<!-- 4384437792&#45;&gt;4376266912* -->
<g id="edge4" class="edge">
<title>4384437792&#45;&gt;4376266912*</title>
<path fill="none" stroke="black" d="M82.41,-90.83C91.69,-88.31 101.54,-85.64 110.65,-83.17"/>
<polygon fill="black" stroke="black" points="111.51,-86.56 120.24,-80.56 109.67,-79.8 111.51,-86.56"/>
</g>
<!-- 4376266912 -->
<g id="node2" class="node">
<title>4376266912</title>
<polygon fill="none" stroke="black" points="211.38,-55.5 211.38,-91.5 295.62,-91.5 295.62,-55.5 211.38,-55.5"/>
<text xml:space="preserve" text-anchor="middle" x="253.5" y="-68.7" font-family="Times,serif" font-size="14.00">data &#45;6.0000</text>
</g>
<!-- 4379806176+ -->
<g id="node7" class="node">
<title>4379806176+</title>
<ellipse fill="none" stroke="black" cx="359.75" cy="-45.5" rx="27" ry="18"/>
<text xml:space="preserve" text-anchor="middle" x="359.75" y="-40.45" font-family="Times,serif" font-size="14.00">+</text>
</g>
<!-- 4376266912&#45;&gt;4379806176+ -->
<g id="edge6" class="edge">
<title>4376266912&#45;&gt;4379806176+</title>
<path fill="none" stroke="black" d="M296,-62.35C305,-59.94 314.45,-57.4 323.19,-55.05"/>
<polygon fill="black" stroke="black" points="323.99,-58.46 332.74,-52.49 322.17,-51.7 323.99,-58.46"/>
</g>
<!-- 4376266912*&#45;&gt;4376266912 -->
<g id="edge1" class="edge">
<title>4376266912*&#45;&gt;4376266912</title>
<path fill="none" stroke="black" d="M174.56,-73.5C182.27,-73.5 191,-73.5 199.75,-73.5"/>
<polygon fill="black" stroke="black" points="199.67,-77 209.67,-73.5 199.67,-70 199.67,-77"/>
</g>
<!-- 4373706576 -->
<g id="node4" class="node">
<title>4373706576</title>
<polygon fill="none" stroke="black" points="0,-28.5 0,-64.5 84.25,-64.5 84.25,-28.5 0,-28.5"/>
<text xml:space="preserve" text-anchor="middle" x="42.12" y="-41.7" font-family="Times,serif" font-size="14.00">data &#45;3.0000</text>
</g>
<!-- 4373706576&#45;&gt;4376266912* -->
<g id="edge5" class="edge">
<title>4373706576&#45;&gt;4376266912*</title>
<path fill="none" stroke="black" d="M84.48,-57.33C93.11,-59.59 102.13,-61.95 110.54,-64.15"/>
<polygon fill="black" stroke="black" points="109.49,-67.49 120.05,-66.64 111.26,-60.72 109.49,-67.49"/>
</g>
<!-- 4384893328 -->
<g id="node5" class="node">
<title>4384893328</title>
<polygon fill="none" stroke="black" points="210.25,-0.5 210.25,-36.5 296.75,-36.5 296.75,-0.5 210.25,-0.5"/>
<text xml:space="preserve" text-anchor="middle" x="253.5" y="-13.7" font-family="Times,serif" font-size="14.00">data 10.0000</text>
</g>
<!-- 4384893328&#45;&gt;4379806176+ -->
<g id="edge3" class="edge">
<title>4384893328&#45;&gt;4379806176+</title>
<path fill="none" stroke="black" d="M297.2,-29.56C305.86,-31.8 314.88,-34.14 323.26,-36.31"/>
<polygon fill="black" stroke="black" points="322.17,-39.64 332.73,-38.76 323.92,-32.86 322.17,-39.64"/>
</g>
<!-- 4379806176 -->
<g id="node6" class="node">
<title>4379806176</title>
<polygon fill="none" stroke="black" points="422.75,-27.5 422.75,-63.5 502.5,-63.5 502.5,-27.5 422.75,-27.5"/>
<text xml:space="preserve" text-anchor="middle" x="462.62" y="-40.7" font-family="Times,serif" font-size="14.00">data 4.0000</text>
</g>
<!-- 4379806176+&#45;&gt;4379806176 -->
<g id="edge2" class="edge">
<title>4379806176+&#45;&gt;4379806176</title>
<path fill="none" stroke="black" d="M386.99,-45.5C394.46,-45.5 402.85,-45.5 411.24,-45.5"/>
<polygon fill="black" stroke="black" points="411.08,-49 421.08,-45.5 411.08,-42 411.08,-49"/>
</g>
</g>
</svg>
