<?xml version="1.0" encoding="UTF-8" standalone="no"?>
<!DOCTYPE svg PUBLIC "-//W3C//DTD SVG 1.1//EN"
 "http://www.w3.org/Graphics/SVG/1.1/DTD/svg11.dtd">
<!-- Generated by graphviz version 14.0.2 (20251019.1705)
 -->
<!-- Pages: 1 -->
<svg width="1138pt" height="156pt"
 viewBox="0.00 0.00 1138.00 156.00" xmlns="http://www.w3.org/2000/svg" xmlns:xlink="http://www.w3.org/1999/xlink">
<g id="graph0" class="graph" transform="scale(1 1) rotate(0) translate(4 152)">
<polygon fill="white" stroke="none" points="-4,4 -4,-152 1133.5,-152 1133.5,4 -4,4"/>
<!-- 4372870672 -->
<g id="node1" class="node">
<title>4372870672</title>
<polygon fill="none" stroke="black" points="0,-111.5 0,-147.5 192.75,-147.5 192.75,-111.5 0,-111.5"/>
<text xml:space="preserve" text-anchor="middle" x="11.38" y="-124.7" font-family="Times,serif" font-size="14.00">b</text>
<polyline fill="none" stroke="black" points="22.75,-112 22.75,-147.5"/>
<text xml:space="preserve" text-anchor="middle" x="64.88" y="-124.7" font-family="Times,serif" font-size="14.00">data &#45;3.0400</text>
<polyline fill="none" stroke="black" points="107,-112 107,-147.5"/>
<text xml:space="preserve" text-anchor="middle" x="149.88" y="-124.7" font-family="Times,serif" font-size="14.00">grad &#45;4.0000</text>
</g>
<!-- 4384601968* -->
<g id="node8" class="node">
<title>4384601968*</title>
<ellipse fill="none" stroke="black" cx="255.75" cy="-101.5" rx="27" ry="18"/>
<text xml:space="preserve" text-anchor="middle" x="255.75" y="-96.45" font-family="Times,serif" font-size="14.00">*</text>
</g>
<!-- 4372870672&#45;&gt;4384601968* -->
<g id="edge4" class="edge">
<title>4372870672&#45;&gt;4384601968*</title>
<path fill="none" stroke="black" d="M193,-112.49C201.81,-110.92 210.32,-109.41 218.06,-108.03"/>
<polygon fill="black" stroke="black" points="218.43,-111.52 227.66,-106.32 217.21,-104.62 218.43,-111.52"/>
</g>
<!-- 4373160464 -->
<g id="node2" class="node">
<title>4373160464</title>
<polygon fill="none" stroke="black" points="632.25,-0.5 632.25,-36.5 818.25,-36.5 818.25,-0.5 632.25,-0.5"/>
<text xml:space="preserve" text-anchor="middle" x="642.5" y="-13.7" font-family="Times,serif" font-size="14.00">f</text>
<polyline fill="none" stroke="black" points="652.75,-1 652.75,-36.5"/>
<text xml:space="preserve" text-anchor="middle" x="694.88" y="-13.7" font-family="Times,serif" font-size="14.00">data &#45;1.9600</text>
<polyline fill="none" stroke="black" points="737,-1 737,-36.5"/>
<text xml:space="preserve" text-anchor="middle" x="777.62" y="-13.7" font-family="Times,serif" font-size="14.00">grad 4.0000</text>
</g>
<!-- 4384602080* -->
<g id="node10" class="node">
<title>4384602080*</title>
<ellipse fill="none" stroke="black" cx="881.25" cy="-45.5" rx="27" ry="18"/>
<text xml:space="preserve" text-anchor="middle" x="881.25" y="-40.45" font-family="Times,serif" font-size="14.00">*</text>
</g>
<!-- 4373160464&#45;&gt;4384602080* -->
<g id="edge9" class="edge">
<title>4373160464&#45;&gt;4384602080*</title>
<path fill="none" stroke="black" d="M818.5,-34.67C827.26,-36.21 835.75,-37.7 843.49,-39.05"/>
<polygon fill="black" stroke="black" points="842.64,-42.46 853.09,-40.74 843.85,-35.56 842.64,-42.46"/>
</g>
<!-- 4384057424 -->
<g id="node3" class="node">
<title>4384057424</title>
<polygon fill="none" stroke="black" points="318.75,-28.5 318.75,-64.5 506.25,-64.5 506.25,-28.5 318.75,-28.5"/>
<text xml:space="preserve" text-anchor="middle" x="329.75" y="-41.7" font-family="Times,serif" font-size="14.00">c</text>
<polyline fill="none" stroke="black" points="340.75,-29 340.75,-64.5"/>
<text xml:space="preserve" text-anchor="middle" x="380.62" y="-41.7" font-family="Times,serif" font-size="14.00">data 9.9800</text>
<polyline fill="none" stroke="black" points="420.5,-29 420.5,-64.5"/>
<text xml:space="preserve" text-anchor="middle" x="463.38" y="-41.7" font-family="Times,serif" font-size="14.00">grad &#45;2.0000</text>
</g>
<!-- 4384601856+ -->
<g id="node6" class="node">
<title>4384601856+</title>
<ellipse fill="none" stroke="black" cx="569.25" cy="-73.5" rx="27" ry="18"/>
<text xml:space="preserve" text-anchor="middle" x="569.25" y="-68.45" font-family="Times,serif" font-size="14.00">+</text>
</g>
<!-- 4384057424&#45;&gt;4384601856+ -->
<g id="edge8" class="edge">
<title>4384057424&#45;&gt;4384601856+</title>
<path fill="none" stroke="black" d="M506.64,-62.75C515.4,-64.28 523.88,-65.76 531.59,-67.1"/>
<polygon fill="black" stroke="black" points="530.72,-70.51 541.18,-68.78 531.93,-63.61 530.72,-70.51"/>
</g>
<!-- 4383570112 -->
<g id="node4" class="node">
<title>4383570112</title>
<polygon fill="none" stroke="black" points="4.88,-56.5 4.88,-92.5 187.88,-92.5 187.88,-56.5 4.88,-56.5"/>
<text xml:space="preserve" text-anchor="middle" x="15.88" y="-69.7" font-family="Times,serif" font-size="14.00">a</text>
<polyline fill="none" stroke="black" points="26.88,-57 26.88,-92.5"/>
<text xml:space="preserve" text-anchor="middle" x="66.75" y="-69.7" font-family="Times,serif" font-size="14.00">data 2.0600</text>
<polyline fill="none" stroke="black" points="106.62,-57 106.62,-92.5"/>
<text xml:space="preserve" text-anchor="middle" x="147.25" y="-69.7" font-family="Times,serif" font-size="14.00">grad 6.0000</text>
</g>
<!-- 4383570112&#45;&gt;4384601968* -->
<g id="edge7" class="edge">
<title>4383570112&#45;&gt;4384601968*</title>
<path fill="none" stroke="black" d="M188.01,-90.05C198.46,-91.84 208.62,-93.59 217.74,-95.15"/>
<polygon fill="black" stroke="black" points="217.11,-98.59 227.56,-96.84 218.3,-91.69 217.11,-98.59"/>
</g>
<!-- 4384601856 -->
<g id="node5" class="node">
<title>4384601856</title>
<polygon fill="none" stroke="black" points="634.88,-55.5 634.88,-91.5 815.62,-91.5 815.62,-55.5 634.88,-55.5"/>
<text xml:space="preserve" text-anchor="middle" x="644.75" y="-68.7" font-family="Times,serif" font-size="14.00"> </text>
<polyline fill="none" stroke="black" points="654.62,-56 654.62,-91.5"/>
<text xml:space="preserve" text-anchor="middle" x="694.5" y="-68.7" font-family="Times,serif" font-size="14.00">data 3.7176</text>
<polyline fill="none" stroke="black" points="734.38,-56 734.38,-91.5"/>
<text xml:space="preserve" text-anchor="middle" x="775" y="-68.7" font-family="Times,serif" font-size="14.00">grad 0.0000</text>
</g>
<!-- 4384601856&#45;&gt;4384602080* -->
<g id="edge5" class="edge">
<title>4384601856&#45;&gt;4384602080*</title>
<path fill="none" stroke="black" d="M815.83,-57.21C825.66,-55.43 835.2,-53.69 843.8,-52.13"/>
<polygon fill="black" stroke="black" points="844.18,-55.62 853.4,-50.38 842.93,-48.73 844.18,-55.62"/>
</g>
<!-- 4384601856+&#45;&gt;4384601856 -->
<g id="edge1" class="edge">
<title>4384601856+&#45;&gt;4384601856</title>
<path fill="none" stroke="black" d="M596.72,-73.5C604.51,-73.5 613.53,-73.5 623.11,-73.5"/>
<polygon fill="black" stroke="black" points="623.05,-77 633.05,-73.5 623.05,-70 623.05,-77"/>
</g>
<!-- 4384601968 -->
<g id="node7" class="node">
<title>4384601968</title>
<polygon fill="none" stroke="black" points="319.88,-83.5 319.88,-119.5 505.12,-119.5 505.12,-83.5 319.88,-83.5"/>
<text xml:space="preserve" text-anchor="middle" x="329.75" y="-96.7" font-family="Times,serif" font-size="14.00"> </text>
<polyline fill="none" stroke="black" points="339.62,-84 339.62,-119.5"/>
<text xml:space="preserve" text-anchor="middle" x="381.75" y="-96.7" font-family="Times,serif" font-size="14.00">data &#45;6.2624</text>
<polyline fill="none" stroke="black" points="423.88,-84 423.88,-119.5"/>
<text xml:space="preserve" text-anchor="middle" x="464.5" y="-96.7" font-family="Times,serif" font-size="14.00">grad 0.0000</text>
</g>
<!-- 4384601968&#45;&gt;4384601856+ -->
<g id="edge6" class="edge">
<title>4384601968&#45;&gt;4384601856+</title>
<path fill="none" stroke="black" d="M505.31,-84.89C514.49,-83.23 523.39,-81.62 531.47,-80.15"/>
<polygon fill="black" stroke="black" points="531.95,-83.63 541.16,-78.4 530.7,-76.74 531.95,-83.63"/>
</g>
<!-- 4384601968*&#45;&gt;4384601968 -->
<g id="edge2" class="edge">
<title>4384601968*&#45;&gt;4384601968</title>
<path fill="none" stroke="black" d="M283,-101.5C290.42,-101.5 298.97,-101.5 308.07,-101.5"/>
<polygon fill="black" stroke="black" points="307.88,-105 317.88,-101.5 307.88,-98 307.88,-105"/>
</g>
<!-- 4384602080 -->
<g id="node9" class="node">
<title>4384602080</title>
<polygon fill="none" stroke="black" points="944.25,-27.5 944.25,-63.5 1129.5,-63.5 1129.5,-27.5 944.25,-27.5"/>
<text xml:space="preserve" text-anchor="middle" x="954.12" y="-40.7" font-family="Times,serif" font-size="14.00"> </text>
<polyline fill="none" stroke="black" points="964,-28 964,-63.5"/>
<text xml:space="preserve" text-anchor="middle" x="1006.12" y="-40.7" font-family="Times,serif" font-size="14.00">data &#45;7.2865</text>
<polyline fill="none" stroke="black" points="1048.25,-28 1048.25,-63.5"/>
<text xml:space="preserve" text-anchor="middle" x="1088.88" y="-40.7" font-family="Times,serif" font-size="14.00">grad 0.0000</text>
</g>
<!-- 4384602080*&#45;&gt;4384602080 -->
<g id="edge3" class="edge">
<title>4384602080*&#45;&gt;4384602080</title>
<path fill="none" stroke="black" d="M908.66,-45.5C915.7,-45.5 923.75,-45.5 932.3,-45.5"/>
<polygon fill="black" stroke="black" points="932.29,-49 942.29,-45.5 932.29,-42 932.29,-49"/>
</g>
</g>
</svg>
