<?xml version="1.0" encoding="UTF-8" standalone="no"?>
<!DOCTYPE svg PUBLIC "-//W3C//DTD SVG 1.1//EN"
 "http://www.w3.org/Graphics/SVG/1.1/DTD/svg11.dtd">
<!-- Generated by graphviz version 14.0.2 (20251019.1705)
 -->
<!-- Pages: 1 -->
<svg width="1140pt" height="128pt"
 viewBox="0.00 0.00 1140.00 128.00" xmlns="http://www.w3.org/2000/svg" xmlns:xlink="http://www.w3.org/1999/xlink">
<g id="graph0" class="graph" transform="scale(1 1) rotate(0) translate(4 124)">
<polygon fill="white" stroke="none" points="-4,4 -4,-124 1135.75,-124 1135.75,4 -4,4"/>
<!-- 4340621840 -->
<g id="node1" class="node">
<title>4340621840</title>
<polygon fill="none" stroke="black" points="630,-82.5 630,-118.5 816,-118.5 816,-82.5 630,-82.5"/>
<text xml:space="preserve" text-anchor="middle" x="640.25" y="-95.7" font-family="Times,serif" font-size="14.00">f</text>
<polyline fill="none" stroke="black" points="650.5,-83 650.5,-118.5"/>
<text xml:space="preserve" text-anchor="middle" x="692.62" y="-95.7" font-family="Times,serif" font-size="14.00">data &#45;2.0000</text>
<polyline fill="none" stroke="black" points="734.75,-83 734.75,-118.5"/>
<text xml:space="preserve" text-anchor="middle" x="775.38" y="-95.7" font-family="Times,serif" font-size="14.00">grad 0.0000</text>
</g>
<!-- 4346431696* -->
<g id="node7" class="node">
<title>4346431696*</title>
<ellipse fill="none" stroke="black" cx="879" cy="-72.5" rx="27" ry="18"/>
<text xml:space="preserve" text-anchor="middle" x="879" y="-67.45" font-family="Times,serif" font-size="14.00">*</text>
</g>
<!-- 4340621840&#45;&gt;4346431696* -->
<g id="edge4" class="edge">
<title>4340621840&#45;&gt;4346431696*</title>
<path fill="none" stroke="black" d="M816.25,-83.73C825.1,-82.12 833.67,-80.56 841.46,-79.14"/>
<polygon fill="black" stroke="black" points="841.93,-82.62 851.15,-77.38 840.68,-75.73 841.93,-82.62"/>
</g>
<!-- 4352914976 -->
<g id="node2" class="node">
<title>4352914976</title>
<polygon fill="none" stroke="black" points="2.62,-83.5 2.62,-119.5 185.62,-119.5 185.62,-83.5 2.62,-83.5"/>
<text xml:space="preserve" text-anchor="middle" x="13.62" y="-96.7" font-family="Times,serif" font-size="14.00">a</text>
<polyline fill="none" stroke="black" points="24.62,-84 24.62,-119.5"/>
<text xml:space="preserve" text-anchor="middle" x="64.5" y="-96.7" font-family="Times,serif" font-size="14.00">data 2.0000</text>
<polyline fill="none" stroke="black" points="104.38,-84 104.38,-119.5"/>
<text xml:space="preserve" text-anchor="middle" x="145" y="-96.7" font-family="Times,serif" font-size="14.00">grad 0.0000</text>
</g>
<!-- 4342909088* -->
<g id="node5" class="node">
<title>4342909088*</title>
<ellipse fill="none" stroke="black" cx="251.25" cy="-73.5" rx="27" ry="18"/>
<text xml:space="preserve" text-anchor="middle" x="251.25" y="-68.45" font-family="Times,serif" font-size="14.00">*</text>
</g>
<!-- 4352914976&#45;&gt;4342909088* -->
<g id="edge9" class="edge">
<title>4352914976&#45;&gt;4342909088*</title>
<path fill="none" stroke="black" d="M185.81,-85.13C195.66,-83.35 205.21,-81.63 213.82,-80.08"/>
<polygon fill="black" stroke="black" points="214.19,-83.57 223.41,-78.34 212.95,-76.68 214.19,-83.57"/>
</g>
<!-- 4340349072 -->
<g id="node3" class="node">
<title>4340349072</title>
<polygon fill="none" stroke="black" points="0,-28.5 0,-64.5 188.25,-64.5 188.25,-28.5 0,-28.5"/>
<text xml:space="preserve" text-anchor="middle" x="11.38" y="-41.7" font-family="Times,serif" font-size="14.00">b</text>
<polyline fill="none" stroke="black" points="22.75,-29 22.75,-64.5"/>
<text xml:space="preserve" text-anchor="middle" x="64.88" y="-41.7" font-family="Times,serif" font-size="14.00">data &#45;3.0000</text>
<polyline fill="none" stroke="black" points="107,-29 107,-64.5"/>
<text xml:space="preserve" text-anchor="middle" x="147.62" y="-41.7" font-family="Times,serif" font-size="14.00">grad 0.0000</text>
</g>
<!-- 4340349072&#45;&gt;4342909088* -->
<g id="edge8" class="edge">
<title>4340349072&#45;&gt;4342909088*</title>
<path fill="none" stroke="black" d="M188.49,-62.75C197.27,-64.28 205.77,-65.76 213.51,-67.1"/>
<polygon fill="black" stroke="black" points="212.66,-70.51 223.11,-68.78 213.86,-63.61 212.66,-70.51"/>
</g>
<!-- 4342909088 -->
<g id="node4" class="node">
<title>4342909088</title>
<polygon fill="none" stroke="black" points="315.38,-55.5 315.38,-91.5 502.88,-91.5 502.88,-55.5 315.38,-55.5"/>
<text xml:space="preserve" text-anchor="middle" x="326.38" y="-68.7" font-family="Times,serif" font-size="14.00">e</text>
<polyline fill="none" stroke="black" points="337.38,-56 337.38,-91.5"/>
<text xml:space="preserve" text-anchor="middle" x="379.5" y="-68.7" font-family="Times,serif" font-size="14.00">data &#45;6.0000</text>
<polyline fill="none" stroke="black" points="421.62,-56 421.62,-91.5"/>
<text xml:space="preserve" text-anchor="middle" x="462.25" y="-68.7" font-family="Times,serif" font-size="14.00">grad 0.0000</text>
</g>
<!-- 4342909392+ -->
<g id="node10" class="node">
<title>4342909392+</title>
<ellipse fill="none" stroke="black" cx="567" cy="-45.5" rx="27" ry="18"/>
<text xml:space="preserve" text-anchor="middle" x="567" y="-40.45" font-family="Times,serif" font-size="14.00">+</text>
</g>
<!-- 4342909088&#45;&gt;4342909392+ -->
<g id="edge5" class="edge">
<title>4342909088&#45;&gt;4342909392+</title>
<path fill="none" stroke="black" d="M503.05,-56.81C512.25,-55.16 521.16,-53.56 529.24,-52.1"/>
<polygon fill="black" stroke="black" points="529.71,-55.58 538.93,-50.36 528.47,-48.69 529.71,-55.58"/>
</g>
<!-- 4342909088*&#45;&gt;4342909088 -->
<g id="edge1" class="edge">
<title>4342909088*&#45;&gt;4342909088</title>
<path fill="none" stroke="black" d="M278.69,-73.5C286.1,-73.5 294.64,-73.5 303.71,-73.5"/>
<polygon fill="black" stroke="black" points="303.51,-77 313.51,-73.5 303.51,-70 303.51,-77"/>
</g>
<!-- 4346431696 -->
<g id="node6" class="node">
<title>4346431696</title>
<polygon fill="none" stroke="black" points="942,-54.5 942,-90.5 1131.75,-90.5 1131.75,-54.5 942,-54.5"/>
<text xml:space="preserve" text-anchor="middle" x="954.12" y="-67.7" font-family="Times,serif" font-size="14.00">L</text>
<polyline fill="none" stroke="black" points="966.25,-55 966.25,-90.5"/>
<text xml:space="preserve" text-anchor="middle" x="1008.38" y="-67.7" font-family="Times,serif" font-size="14.00">data &#45;8.0000</text>
<polyline fill="none" stroke="black" points="1050.5,-55 1050.5,-90.5"/>
<text xml:space="preserve" text-anchor="middle" x="1091.12" y="-67.7" font-family="Times,serif" font-size="14.00">grad 0.0000</text>
</g>
<!-- 4346431696*&#45;&gt;4346431696 -->
<g id="edge2" class="edge">
<title>4346431696*&#45;&gt;4346431696</title>
<path fill="none" stroke="black" d="M906.44,-72.5C913.59,-72.5 921.78,-72.5 930.49,-72.5"/>
<polygon fill="black" stroke="black" points="930.26,-76 940.26,-72.5 930.26,-69 930.26,-76"/>
</g>
<!-- 4353370832 -->
<g id="node8" class="node">
<title>4353370832</title>
<polygon fill="none" stroke="black" points="314.25,-0.5 314.25,-36.5 504,-36.5 504,-0.5 314.25,-0.5"/>
<text xml:space="preserve" text-anchor="middle" x="325.25" y="-13.7" font-family="Times,serif" font-size="14.00">c</text>
<polyline fill="none" stroke="black" points="336.25,-1 336.25,-36.5"/>
<text xml:space="preserve" text-anchor="middle" x="379.5" y="-13.7" font-family="Times,serif" font-size="14.00">data 10.0000</text>
<polyline fill="none" stroke="black" points="422.75,-1 422.75,-36.5"/>
<text xml:space="preserve" text-anchor="middle" x="463.38" y="-13.7" font-family="Times,serif" font-size="14.00">grad 0.0000</text>
</g>
<!-- 4353370832&#45;&gt;4342909392+ -->
<g id="edge6" class="edge">
<title>4353370832&#45;&gt;4342909392+</title>
<path fill="none" stroke="black" d="M504.39,-34.83C513.16,-36.35 521.65,-37.82 529.37,-39.15"/>
<polygon fill="black" stroke="black" points="528.5,-42.56 538.95,-40.81 529.69,-35.66 528.5,-42.56"/>
</g>
<!-- 4342909392 -->
<g id="node9" class="node">
<title>4342909392</title>
<polygon fill="none" stroke="black" points="631.12,-27.5 631.12,-63.5 814.88,-63.5 814.88,-27.5 631.12,-27.5"/>
<text xml:space="preserve" text-anchor="middle" x="642.5" y="-40.7" font-family="Times,serif" font-size="14.00">d</text>
<polyline fill="none" stroke="black" points="653.88,-28 653.88,-63.5"/>
<text xml:space="preserve" text-anchor="middle" x="693.75" y="-40.7" font-family="Times,serif" font-size="14.00">data 4.0000</text>
<polyline fill="none" stroke="black" points="733.62,-28 733.62,-63.5"/>
<text xml:space="preserve" text-anchor="middle" x="774.25" y="-40.7" font-family="Times,serif" font-size="14.00">grad 0.0000</text>
</g>
<!-- 4342909392&#45;&gt;4346431696* -->
<g id="edge7" class="edge">
<title>4342909392&#45;&gt;4346431696*</title>
<path fill="none" stroke="black" d="M815.36,-61.52C824.5,-63.12 833.36,-64.67 841.4,-66.08"/>
<polygon fill="black" stroke="black" points="840.58,-69.49 851.04,-67.77 841.79,-62.6 840.58,-69.49"/>
</g>
<!-- 4342909392+&#45;&gt;4342909392 -->
<g id="edge3" class="edge">
<title>4342909392+&#45;&gt;4342909392</title>
<path fill="none" stroke="black" d="M594.47,-45.5C601.87,-45.5 610.38,-45.5 619.43,-45.5"/>
<polygon fill="black" stroke="black" points="619.17,-49 629.17,-45.5 619.17,-42 619.17,-49"/>
</g>
</g>
</svg>
