<?xml version="1.0" encoding="UTF-8" standalone="no"?>
<!DOCTYPE svg PUBLIC "-//W3C//DTD SVG 1.1//EN"
 "http://www.w3.org/Graphics/SVG/1.1/DTD/svg11.dtd">
<!-- Generated by graphviz version 14.0.2 (20251019.1705)
 -->
<!-- Pages: 1 -->
<svg width="823pt" height="128pt"
 viewBox="0.00 0.00 823.00 128.00" xmlns="http://www.w3.org/2000/svg" xmlns:xlink="http://www.w3.org/1999/xlink">
<g id="graph0" class="graph" transform="scale(1 1) rotate(0) translate(4 124)">
<polygon fill="white" stroke="none" points="-4,4 -4,-124 818.5,-124 818.5,4 -4,4"/>
<!-- 4420023840 -->
<g id="node1" class="node">
<title>4420023840</title>
<polygon fill="none" stroke="black" points="2.62,-83.5 2.62,-119.5 185.62,-119.5 185.62,-83.5 2.62,-83.5"/>
<text xml:space="preserve" text-anchor="middle" x="13.62" y="-96.7" font-family="Times,serif" font-size="14.00">a</text>
<polyline fill="none" stroke="black" points="24.62,-84 24.62,-119.5"/>
<text xml:space="preserve" text-anchor="middle" x="64.5" y="-96.7" font-family="Times,serif" font-size="14.00">data 2.0000</text>
<polyline fill="none" stroke="black" points="104.38,-84 104.38,-119.5"/>
<text xml:space="preserve" text-anchor="middle" x="145" y="-96.7" font-family="Times,serif" font-size="14.00">grad 0.0000</text>
</g>
<!-- 4407331280* -->
<g id="node7" class="node">
<title>4407331280*</title>
<ellipse fill="none" stroke="black" cx="251.25" cy="-73.5" rx="27" ry="18"/>
<text xml:space="preserve" text-anchor="middle" x="251.25" y="-68.45" font-family="Times,serif" font-size="14.00">*</text>
</g>
<!-- 4420023840&#45;&gt;4407331280* -->
<g id="edge4" class="edge">
<title>4420023840&#45;&gt;4407331280*</title>
<path fill="none" stroke="black" d="M185.81,-85.13C195.66,-83.35 205.21,-81.63 213.82,-80.08"/>
<polygon fill="black" stroke="black" points="214.19,-83.57 223.41,-78.34 212.95,-76.68 214.19,-83.57"/>
</g>
<!-- 4412426448 -->
<g id="node2" class="node">
<title>4412426448</title>
<polygon fill="none" stroke="black" points="630.75,-27.5 630.75,-63.5 814.5,-63.5 814.5,-27.5 630.75,-27.5"/>
<text xml:space="preserve" text-anchor="middle" x="642.12" y="-40.7" font-family="Times,serif" font-size="14.00">d</text>
<polyline fill="none" stroke="black" points="653.5,-28 653.5,-63.5"/>
<text xml:space="preserve" text-anchor="middle" x="693.38" y="-40.7" font-family="Times,serif" font-size="14.00">data 4.0000</text>
<polyline fill="none" stroke="black" points="733.25,-28 733.25,-63.5"/>
<text xml:space="preserve" text-anchor="middle" x="773.88" y="-40.7" font-family="Times,serif" font-size="14.00">grad 0.0000</text>
</g>
<!-- 4412426448+ -->
<g id="node3" class="node">
<title>4412426448+</title>
<ellipse fill="none" stroke="black" cx="567.75" cy="-45.5" rx="27" ry="18"/>
<text xml:space="preserve" text-anchor="middle" x="567.75" y="-40.45" font-family="Times,serif" font-size="14.00">+</text>
</g>
<!-- 4412426448+&#45;&gt;4412426448 -->
<g id="edge1" class="edge">
<title>4412426448+&#45;&gt;4412426448</title>
<path fill="none" stroke="black" d="M595.03,-45.5C602.17,-45.5 610.36,-45.5 619.07,-45.5"/>
<polygon fill="black" stroke="black" points="618.81,-49 628.81,-45.5 618.81,-42 618.81,-49"/>
</g>
<!-- 4404787024 -->
<g id="node4" class="node">
<title>4404787024</title>
<polygon fill="none" stroke="black" points="0,-28.5 0,-64.5 188.25,-64.5 188.25,-28.5 0,-28.5"/>
<text xml:space="preserve" text-anchor="middle" x="11.38" y="-41.7" font-family="Times,serif" font-size="14.00">b</text>
<polyline fill="none" stroke="black" points="22.75,-29 22.75,-64.5"/>
<text xml:space="preserve" text-anchor="middle" x="64.88" y="-41.7" font-family="Times,serif" font-size="14.00">data &#45;3.0000</text>
<polyline fill="none" stroke="black" points="107,-29 107,-64.5"/>
<text xml:space="preserve" text-anchor="middle" x="147.62" y="-41.7" font-family="Times,serif" font-size="14.00">grad 0.0000</text>
</g>
<!-- 4404787024&#45;&gt;4407331280* -->
<g id="edge6" class="edge">
<title>4404787024&#45;&gt;4407331280*</title>
<path fill="none" stroke="black" d="M188.49,-62.75C197.27,-64.28 205.77,-65.76 213.51,-67.1"/>
<polygon fill="black" stroke="black" points="212.66,-70.51 223.11,-68.78 213.86,-63.61 212.66,-70.51"/>
</g>
<!-- 4420495760 -->
<g id="node5" class="node">
<title>4420495760</title>
<polygon fill="none" stroke="black" points="314.25,-0.5 314.25,-36.5 504.75,-36.5 504.75,-0.5 314.25,-0.5"/>
<text xml:space="preserve" text-anchor="middle" x="325.62" y="-13.7" font-family="Times,serif" font-size="14.00">d</text>
<polyline fill="none" stroke="black" points="337,-1 337,-36.5"/>
<text xml:space="preserve" text-anchor="middle" x="380.25" y="-13.7" font-family="Times,serif" font-size="14.00">data 10.0000</text>
<polyline fill="none" stroke="black" points="423.5,-1 423.5,-36.5"/>
<text xml:space="preserve" text-anchor="middle" x="464.12" y="-13.7" font-family="Times,serif" font-size="14.00">grad 0.0000</text>
</g>
<!-- 4420495760&#45;&gt;4412426448+ -->
<g id="edge3" class="edge">
<title>4420495760&#45;&gt;4412426448+</title>
<path fill="none" stroke="black" d="M505,-34.83C513.79,-36.35 522.29,-37.82 530.03,-39.15"/>
<polygon fill="black" stroke="black" points="529.19,-42.56 539.64,-40.81 530.38,-35.66 529.19,-42.56"/>
</g>
<!-- 4407331280 -->
<g id="node6" class="node">
<title>4407331280</title>
<polygon fill="none" stroke="black" points="315.75,-55.5 315.75,-91.5 503.25,-91.5 503.25,-55.5 315.75,-55.5"/>
<text xml:space="preserve" text-anchor="middle" x="326.75" y="-68.7" font-family="Times,serif" font-size="14.00">e</text>
<polyline fill="none" stroke="black" points="337.75,-56 337.75,-91.5"/>
<text xml:space="preserve" text-anchor="middle" x="379.88" y="-68.7" font-family="Times,serif" font-size="14.00">data &#45;6.0000</text>
<polyline fill="none" stroke="black" points="422,-56 422,-91.5"/>
<text xml:space="preserve" text-anchor="middle" x="462.62" y="-68.7" font-family="Times,serif" font-size="14.00">grad 0.0000</text>
</g>
<!-- 4407331280&#45;&gt;4412426448+ -->
<g id="edge5" class="edge">
<title>4407331280&#45;&gt;4412426448+</title>
<path fill="none" stroke="black" d="M503.65,-56.81C512.96,-55.14 521.97,-53.52 530.13,-52.06"/>
<polygon fill="black" stroke="black" points="530.7,-55.52 539.93,-50.31 529.46,-48.63 530.7,-55.52"/>
</g>
<!-- 4407331280*&#45;&gt;4407331280 -->
<g id="edge2" class="edge">
<title>4407331280*&#45;&gt;4407331280</title>
<path fill="none" stroke="black" d="M278.4,-73.5C286.02,-73.5 294.85,-73.5 304.24,-73.5"/>
<polygon fill="black" stroke="black" points="303.98,-77 313.98,-73.5 303.98,-70 303.98,-77"/>
</g>
</g>
</svg>
