<?xml version="1.0" encoding="UTF-8" standalone="no"?>
<!DOCTYPE svg PUBLIC "-//W3C//DTD SVG 1.1//EN"
 "http://www.w3.org/Graphics/SVG/1.1/DTD/svg11.dtd">
<!-- Generated by graphviz version 14.0.2 (20251019.1705)
 -->
<!-- Pages: 1 -->
<svg width="2922pt" height="210pt"
 viewBox="0.00 0.00 2922.00 210.00" xmlns="http://www.w3.org/2000/svg" xmlns:xlink="http://www.w3.org/1999/xlink">
<g id="graph0" class="graph" transform="scale(1 1) rotate(0) translate(4 206)">
<polygon fill="white" stroke="none" points="-4,4 -4,-206 2917.75,-206 2917.75,4 -4,4"/>
<!-- 4351011920 -->
<g id="node1" class="node">
<title>4351011920</title>
<polygon fill="none" stroke="black" points="2426.25,-57.5 2426.25,-93.5 2607,-93.5 2607,-57.5 2426.25,-57.5"/>
<text xml:space="preserve" text-anchor="middle" x="2436.12" y="-70.7" font-family="Times,serif" font-size="14.00"> </text>
<polyline fill="none" stroke="black" points="2446,-58 2446,-93.5"/>
<text xml:space="preserve" text-anchor="middle" x="2485.88" y="-70.7" font-family="Times,serif" font-size="14.00">data 0.1464</text>
<polyline fill="none" stroke="black" points="2525.75,-58 2525.75,-93.5"/>
<text xml:space="preserve" text-anchor="middle" x="2566.38" y="-70.7" font-family="Times,serif" font-size="14.00">grad 0.0000</text>
</g>
<!-- 4351012048* -->
<g id="node11" class="node">
<title>4351012048*</title>
<ellipse fill="none" stroke="black" cx="2670" cy="-98.5" rx="27" ry="18"/>
<text xml:space="preserve" text-anchor="middle" x="2670" y="-93.45" font-family="Times,serif" font-size="14.00">*</text>
</g>
<!-- 4351011920&#45;&gt;4351012048* -->
<g id="edge14" class="edge">
<title>4351011920&#45;&gt;4351012048*</title>
<path fill="none" stroke="black" d="M2607.43,-89.15C2616.04,-90.45 2624.39,-91.72 2632.03,-92.88"/>
<polygon fill="black" stroke="black" points="2631.46,-96.34 2641.87,-94.38 2632.51,-89.41 2631.46,-96.34"/>
</g>
<!-- 4351011920**&#45;1 -->
<g id="node2" class="node">
<title>4351011920**&#45;1</title>
<ellipse fill="none" stroke="black" cx="2299.88" cy="-71.5" rx="27.81" ry="18"/>
<text xml:space="preserve" text-anchor="middle" x="2299.88" y="-66.45" font-family="Times,serif" font-size="14.00">**&#45;1</text>
</g>
<!-- 4351011920**&#45;1&#45;&gt;4351011920 -->
<g id="edge1" class="edge">
<title>4351011920**&#45;1&#45;&gt;4351011920</title>
<path fill="none" stroke="black" d="M2328.07,-72.01C2350.18,-72.42 2382.83,-73.03 2414.72,-73.62"/>
<polygon fill="black" stroke="black" points="2414.37,-77.11 2424.43,-73.8 2414.5,-70.12 2414.37,-77.11"/>
</g>
<!-- 4350708816 -->
<g id="node3" class="node">
<title>4350708816</title>
<polygon fill="none" stroke="black" points="3.75,-55.5 3.75,-91.5 194.25,-91.5 194.25,-55.5 3.75,-55.5"/>
<text xml:space="preserve" text-anchor="middle" x="18.5" y="-68.7" font-family="Times,serif" font-size="14.00">x1</text>
<polyline fill="none" stroke="black" points="33.25,-56 33.25,-91.5"/>
<text xml:space="preserve" text-anchor="middle" x="73.12" y="-68.7" font-family="Times,serif" font-size="14.00">data 2.0000</text>
<polyline fill="none" stroke="black" points="113,-56 113,-91.5"/>
<text xml:space="preserve" text-anchor="middle" x="153.62" y="-68.7" font-family="Times,serif" font-size="14.00">grad 0.0000</text>
</g>
<!-- 4350910256* -->
<g id="node19" class="node">
<title>4350910256*</title>
<ellipse fill="none" stroke="black" cx="261" cy="-73.5" rx="27" ry="18"/>
<text xml:space="preserve" text-anchor="middle" x="261" y="-68.45" font-family="Times,serif" font-size="14.00">*</text>
</g>
<!-- 4350708816&#45;&gt;4350910256* -->
<g id="edge21" class="edge">
<title>4350708816&#45;&gt;4350910256*</title>
<path fill="none" stroke="black" d="M194.46,-73.5C204.21,-73.5 213.66,-73.5 222.21,-73.5"/>
<polygon fill="black" stroke="black" points="222.12,-77 232.12,-73.5 222.12,-70 222.12,-77"/>
</g>
<!-- 4349099088 -->
<g id="node4" class="node">
<title>4349099088</title>
<polygon fill="none" stroke="black" points="326.25,-110.5 326.25,-146.5 540,-146.5 540,-110.5 326.25,-110.5"/>
<text xml:space="preserve" text-anchor="middle" x="352.62" y="-123.7" font-family="Times,serif" font-size="14.00">x2*w2</text>
<polyline fill="none" stroke="black" points="379,-111 379,-146.5"/>
<text xml:space="preserve" text-anchor="middle" x="418.88" y="-123.7" font-family="Times,serif" font-size="14.00">data 0.0000</text>
<polyline fill="none" stroke="black" points="458.75,-111 458.75,-146.5"/>
<text xml:space="preserve" text-anchor="middle" x="499.38" y="-123.7" font-family="Times,serif" font-size="14.00">grad 0.0000</text>
</g>
<!-- 4349099472+ -->
<g id="node14" class="node">
<title>4349099472+</title>
<ellipse fill="none" stroke="black" cx="605.25" cy="-100.5" rx="27" ry="18"/>
<text xml:space="preserve" text-anchor="middle" x="605.25" y="-95.45" font-family="Times,serif" font-size="14.00">+</text>
</g>
<!-- 4349099088&#45;&gt;4349099472+ -->
<g id="edge20" class="edge">
<title>4349099088&#45;&gt;4349099472+</title>
<path fill="none" stroke="black" d="M540.42,-111.01C549.89,-109.45 559,-107.95 567.21,-106.6"/>
<polygon fill="black" stroke="black" points="567.75,-110.05 577.05,-104.98 566.62,-103.15 567.75,-110.05"/>
</g>
<!-- 4349099088* -->
<g id="node5" class="node">
<title>4349099088*</title>
<ellipse fill="none" stroke="black" cx="261" cy="-128.5" rx="27" ry="18"/>
<text xml:space="preserve" text-anchor="middle" x="261" y="-123.45" font-family="Times,serif" font-size="14.00">*</text>
</g>
<!-- 4349099088*&#45;&gt;4349099088 -->
<g id="edge2" class="edge">
<title>4349099088*&#45;&gt;4349099088</title>
<path fill="none" stroke="black" d="M288.21,-128.5C296,-128.5 305.08,-128.5 314.82,-128.5"/>
<polygon fill="black" stroke="black" points="314.55,-132 324.55,-128.5 314.55,-125 314.55,-132"/>
</g>
<!-- 4350515824 -->
<g id="node6" class="node">
<title>4350515824</title>
<polygon fill="none" stroke="black" points="1066.5,-109.5 1066.5,-145.5 1247.25,-145.5 1247.25,-109.5 1066.5,-109.5"/>
<text xml:space="preserve" text-anchor="middle" x="1076.38" y="-122.7" font-family="Times,serif" font-size="14.00"> </text>
<polyline fill="none" stroke="black" points="1086.25,-110 1086.25,-145.5"/>
<text xml:space="preserve" text-anchor="middle" x="1126.12" y="-122.7" font-family="Times,serif" font-size="14.00">data 2.0000</text>
<polyline fill="none" stroke="black" points="1166,-110 1166,-145.5"/>
<text xml:space="preserve" text-anchor="middle" x="1206.62" y="-122.7" font-family="Times,serif" font-size="14.00">grad 0.0000</text>
</g>
<!-- 4351021840* -->
<g id="node16" class="node">
<title>4351021840*</title>
<ellipse fill="none" stroke="black" cx="1311.75" cy="-99.5" rx="27" ry="18"/>
<text xml:space="preserve" text-anchor="middle" x="1311.75" y="-94.45" font-family="Times,serif" font-size="14.00">*</text>
</g>
<!-- 4350515824&#45;&gt;4351021840* -->
<g id="edge26" class="edge">
<title>4350515824&#45;&gt;4351021840*</title>
<path fill="none" stroke="black" d="M1247.69,-111.05C1256.94,-109.35 1265.93,-107.71 1274.08,-106.22"/>
<polygon fill="black" stroke="black" points="1274.67,-109.67 1283.87,-104.42 1273.41,-102.78 1274.67,-109.67"/>
</g>
<!-- 4350302864 -->
<g id="node7" class="node">
<title>4350302864</title>
<polygon fill="none" stroke="black" points="0,-0.5 0,-36.5 198,-36.5 198,-0.5 0,-0.5"/>
<text xml:space="preserve" text-anchor="middle" x="16.25" y="-13.7" font-family="Times,serif" font-size="14.00">w1</text>
<polyline fill="none" stroke="black" points="32.5,-1 32.5,-36.5"/>
<text xml:space="preserve" text-anchor="middle" x="74.62" y="-13.7" font-family="Times,serif" font-size="14.00">data &#45;3.0000</text>
<polyline fill="none" stroke="black" points="116.75,-1 116.75,-36.5"/>
<text xml:space="preserve" text-anchor="middle" x="157.38" y="-13.7" font-family="Times,serif" font-size="14.00">grad 0.0000</text>
</g>
<!-- 4350302864&#45;&gt;4350910256* -->
<g id="edge18" class="edge">
<title>4350302864&#45;&gt;4350910256*</title>
<path fill="none" stroke="black" d="M172.12,-36.99C180.9,-39.65 189.7,-42.5 198,-45.5 208.09,-49.14 218.82,-53.73 228.47,-58.12"/>
<polygon fill="black" stroke="black" points="226.9,-61.25 237.45,-62.31 229.86,-54.91 226.9,-61.25"/>
</g>
<!-- 4351004240 -->
<g id="node8" class="node">
<title>4351004240</title>
<polygon fill="none" stroke="black" points="2209.5,-108.5 2209.5,-144.5 2390.25,-144.5 2390.25,-108.5 2209.5,-108.5"/>
<text xml:space="preserve" text-anchor="middle" x="2219.38" y="-121.7" font-family="Times,serif" font-size="14.00"> </text>
<polyline fill="none" stroke="black" points="2229.25,-109 2229.25,-144.5"/>
<text xml:space="preserve" text-anchor="middle" x="2269.12" y="-121.7" font-family="Times,serif" font-size="14.00">data 4.8284</text>
<polyline fill="none" stroke="black" points="2309,-109 2309,-144.5"/>
<text xml:space="preserve" text-anchor="middle" x="2349.62" y="-121.7" font-family="Times,serif" font-size="14.00">grad 0.0000</text>
</g>
<!-- 4351004240&#45;&gt;4351012048* -->
<g id="edge17" class="edge">
<title>4351004240&#45;&gt;4351012048*</title>
<path fill="none" stroke="black" d="M2390.63,-119.89C2451.65,-115.36 2534.2,-109.17 2607,-103.5 2614.88,-102.89 2623.33,-102.21 2631.37,-101.57"/>
<polygon fill="black" stroke="black" points="2631.56,-105.06 2641.25,-100.77 2631,-98.09 2631.56,-105.06"/>
</g>
<!-- 4351004240+ -->
<g id="node9" class="node">
<title>4351004240+</title>
<ellipse fill="none" stroke="black" cx="1929.75" cy="-126.5" rx="27" ry="18"/>
<text xml:space="preserve" text-anchor="middle" x="1929.75" y="-121.45" font-family="Times,serif" font-size="14.00">+</text>
</g>
<!-- 4351004240+&#45;&gt;4351004240 -->
<g id="edge3" class="edge">
<title>4351004240+&#45;&gt;4351004240</title>
<path fill="none" stroke="black" d="M1957.22,-126.5C2006.82,-126.5 2116.09,-126.5 2197.79,-126.5"/>
<polygon fill="black" stroke="black" points="2197.61,-130 2207.61,-126.5 2197.61,-123 2197.61,-130"/>
</g>
<!-- 4351012048 -->
<g id="node10" class="node">
<title>4351012048</title>
<polygon fill="none" stroke="black" points="2733,-80.5 2733,-116.5 2913.75,-116.5 2913.75,-80.5 2733,-80.5"/>
<text xml:space="preserve" text-anchor="middle" x="2742.88" y="-93.7" font-family="Times,serif" font-size="14.00"> </text>
<polyline fill="none" stroke="black" points="2752.75,-81 2752.75,-116.5"/>
<text xml:space="preserve" text-anchor="middle" x="2792.62" y="-93.7" font-family="Times,serif" font-size="14.00">data 0.7071</text>
<polyline fill="none" stroke="black" points="2832.5,-81 2832.5,-116.5"/>
<text xml:space="preserve" text-anchor="middle" x="2873.12" y="-93.7" font-family="Times,serif" font-size="14.00">grad 0.0000</text>
</g>
<!-- 4351012048*&#45;&gt;4351012048 -->
<g id="edge4" class="edge">
<title>4351012048*&#45;&gt;4351012048</title>
<path fill="none" stroke="black" d="M2697.37,-98.5C2704.51,-98.5 2712.7,-98.5 2721.39,-98.5"/>
<polygon fill="black" stroke="black" points="2721.11,-102 2731.11,-98.5 2721.11,-95 2721.11,-102"/>
</g>
<!-- 4350302624 -->
<g id="node12" class="node">
<title>4350302624</title>
<polygon fill="none" stroke="black" points="3.75,-165.5 3.75,-201.5 194.25,-201.5 194.25,-165.5 3.75,-165.5"/>
<text xml:space="preserve" text-anchor="middle" x="18.5" y="-178.7" font-family="Times,serif" font-size="14.00">x2</text>
<polyline fill="none" stroke="black" points="33.25,-166 33.25,-201.5"/>
<text xml:space="preserve" text-anchor="middle" x="73.12" y="-178.7" font-family="Times,serif" font-size="14.00">data 0.0000</text>
<polyline fill="none" stroke="black" points="113,-166 113,-201.5"/>
<text xml:space="preserve" text-anchor="middle" x="153.62" y="-178.7" font-family="Times,serif" font-size="14.00">grad 0.0000</text>
</g>
<!-- 4350302624&#45;&gt;4349099088* -->
<g id="edge22" class="edge">
<title>4350302624&#45;&gt;4349099088*</title>
<path fill="none" stroke="black" d="M172.12,-165.01C180.9,-162.35 189.7,-159.5 198,-156.5 208.09,-152.86 218.82,-148.27 228.47,-143.88"/>
<polygon fill="black" stroke="black" points="229.86,-147.09 237.45,-139.69 226.9,-140.75 229.86,-147.09"/>
</g>
<!-- 4349099472 -->
<g id="node13" class="node">
<title>4349099472</title>
<polygon fill="none" stroke="black" points="668.25,-82.5 668.25,-118.5 939,-118.5 939,-82.5 668.25,-82.5"/>
<text xml:space="preserve" text-anchor="middle" x="720.88" y="-95.7" font-family="Times,serif" font-size="14.00">x1*w1 + x2*w2</text>
<polyline fill="none" stroke="black" points="773.5,-83 773.5,-118.5"/>
<text xml:space="preserve" text-anchor="middle" x="815.62" y="-95.7" font-family="Times,serif" font-size="14.00">data &#45;6.0000</text>
<polyline fill="none" stroke="black" points="857.75,-83 857.75,-118.5"/>
<text xml:space="preserve" text-anchor="middle" x="898.38" y="-95.7" font-family="Times,serif" font-size="14.00">grad 0.0000</text>
</g>
<!-- 4350514592+ -->
<g id="node24" class="node">
<title>4350514592+</title>
<ellipse fill="none" stroke="black" cx="1002" cy="-72.5" rx="27" ry="18"/>
<text xml:space="preserve" text-anchor="middle" x="1002" y="-67.45" font-family="Times,serif" font-size="14.00">+</text>
</g>
<!-- 4349099472&#45;&gt;4350514592+ -->
<g id="edge12" class="edge">
<title>4349099472&#45;&gt;4350514592+</title>
<path fill="none" stroke="black" d="M934.24,-82.02C944.99,-80.49 955.18,-79.03 964.21,-77.75"/>
<polygon fill="black" stroke="black" points="964.46,-81.25 973.86,-76.37 963.47,-74.32 964.46,-81.25"/>
</g>
<!-- 4349099472+&#45;&gt;4349099472 -->
<g id="edge5" class="edge">
<title>4349099472+&#45;&gt;4349099472</title>
<path fill="none" stroke="black" d="M632.73,-100.5C639.73,-100.5 647.79,-100.5 656.52,-100.5"/>
<polygon fill="black" stroke="black" points="656.39,-104 666.39,-100.5 656.39,-97 656.39,-104"/>
</g>
<!-- 4351021840 -->
<g id="node15" class="node">
<title>4351021840</title>
<polygon fill="none" stroke="black" points="1374.75,-81.5 1374.75,-117.5 1555.5,-117.5 1555.5,-81.5 1374.75,-81.5"/>
<text xml:space="preserve" text-anchor="middle" x="1384.62" y="-94.7" font-family="Times,serif" font-size="14.00"> </text>
<polyline fill="none" stroke="black" points="1394.5,-82 1394.5,-117.5"/>
<text xml:space="preserve" text-anchor="middle" x="1434.38" y="-94.7" font-family="Times,serif" font-size="14.00">data 1.7627</text>
<polyline fill="none" stroke="black" points="1474.25,-82 1474.25,-117.5"/>
<text xml:space="preserve" text-anchor="middle" x="1514.88" y="-94.7" font-family="Times,serif" font-size="14.00">grad 0.0000</text>
</g>
<!-- 4351022000exp -->
<g id="node26" class="node">
<title>4351022000exp</title>
<ellipse fill="none" stroke="black" cx="1618.5" cy="-99.5" rx="27" ry="18"/>
<text xml:space="preserve" text-anchor="middle" x="1618.5" y="-94.45" font-family="Times,serif" font-size="14.00">exp</text>
</g>
<!-- 4351021840&#45;&gt;4351022000exp -->
<g id="edge25" class="edge">
<title>4351021840&#45;&gt;4351022000exp</title>
<path fill="none" stroke="black" d="M1555.93,-99.5C1564.27,-99.5 1572.37,-99.5 1579.81,-99.5"/>
<polygon fill="black" stroke="black" points="1579.75,-103 1589.75,-99.5 1579.75,-96 1579.75,-103"/>
</g>
<!-- 4351021840*&#45;&gt;4351021840 -->
<g id="edge6" class="edge">
<title>4351021840*&#45;&gt;4351021840</title>
<path fill="none" stroke="black" d="M1339.12,-99.5C1346.26,-99.5 1354.45,-99.5 1363.14,-99.5"/>
<polygon fill="black" stroke="black" points="1362.86,-103 1372.86,-99.5 1362.86,-96 1362.86,-103"/>
</g>
<!-- 4351035664 -->
<g id="node17" class="node">
<title>4351035664</title>
<polygon fill="none" stroke="black" points="711.75,-27.5 711.75,-63.5 895.5,-63.5 895.5,-27.5 711.75,-27.5"/>
<text xml:space="preserve" text-anchor="middle" x="723.12" y="-40.7" font-family="Times,serif" font-size="14.00">b</text>
<polyline fill="none" stroke="black" points="734.5,-28 734.5,-63.5"/>
<text xml:space="preserve" text-anchor="middle" x="774.38" y="-40.7" font-family="Times,serif" font-size="14.00">data 6.8814</text>
<polyline fill="none" stroke="black" points="814.25,-28 814.25,-63.5"/>
<text xml:space="preserve" text-anchor="middle" x="854.88" y="-40.7" font-family="Times,serif" font-size="14.00">grad 0.0000</text>
</g>
<!-- 4351035664&#45;&gt;4350514592+ -->
<g id="edge27" class="edge">
<title>4351035664&#45;&gt;4350514592+</title>
<path fill="none" stroke="black" d="M895.91,-58.05C919.97,-61.36 944.58,-64.74 963.93,-67.4"/>
<polygon fill="black" stroke="black" points="963.36,-70.86 973.75,-68.75 964.32,-63.92 963.36,-70.86"/>
</g>
<!-- 4350910256 -->
<g id="node18" class="node">
<title>4350910256</title>
<polygon fill="none" stroke="black" points="324,-55.5 324,-91.5 542.25,-91.5 542.25,-55.5 324,-55.5"/>
<text xml:space="preserve" text-anchor="middle" x="350.38" y="-68.7" font-family="Times,serif" font-size="14.00">x1*w1</text>
<polyline fill="none" stroke="black" points="376.75,-56 376.75,-91.5"/>
<text xml:space="preserve" text-anchor="middle" x="418.88" y="-68.7" font-family="Times,serif" font-size="14.00">data &#45;6.0000</text>
<polyline fill="none" stroke="black" points="461,-56 461,-91.5"/>
<text xml:space="preserve" text-anchor="middle" x="501.62" y="-68.7" font-family="Times,serif" font-size="14.00">grad 0.0000</text>
</g>
<!-- 4350910256&#45;&gt;4349099472+ -->
<g id="edge13" class="edge">
<title>4350910256&#45;&gt;4349099472+</title>
<path fill="none" stroke="black" d="M542.35,-90.68C551.12,-92.07 559.54,-93.4 567.19,-94.62"/>
<polygon fill="black" stroke="black" points="566.59,-98.07 577.02,-96.18 567.69,-91.15 566.59,-98.07"/>
</g>
<!-- 4350910256*&#45;&gt;4350910256 -->
<g id="edge7" class="edge">
<title>4350910256*&#45;&gt;4350910256</title>
<path fill="none" stroke="black" d="M288.21,-73.5C295.29,-73.5 303.43,-73.5 312.17,-73.5"/>
<polygon fill="black" stroke="black" points="312.01,-77 322.01,-73.5 312.01,-70 312.01,-77"/>
</g>
<!-- 4350653744 -->
<g id="node20" class="node">
<title>4350653744</title>
<polygon fill="none" stroke="black" points="1681.5,-136.5 1681.5,-172.5 1866.75,-172.5 1866.75,-136.5 1681.5,-136.5"/>
<text xml:space="preserve" text-anchor="middle" x="1691.38" y="-149.7" font-family="Times,serif" font-size="14.00"> </text>
<polyline fill="none" stroke="black" points="1701.25,-137 1701.25,-172.5"/>
<text xml:space="preserve" text-anchor="middle" x="1743.38" y="-149.7" font-family="Times,serif" font-size="14.00">data &#45;1.0000</text>
<polyline fill="none" stroke="black" points="1785.5,-137 1785.5,-172.5"/>
<text xml:space="preserve" text-anchor="middle" x="1826.12" y="-149.7" font-family="Times,serif" font-size="14.00">grad 0.0000</text>
</g>
<!-- 4350653744&#45;&gt;4351004240+ -->
<g id="edge15" class="edge">
<title>4350653744&#45;&gt;4351004240+</title>
<path fill="none" stroke="black" d="M1867.15,-137.73C1875.89,-136.13 1884.36,-134.59 1892.08,-133.18"/>
<polygon fill="black" stroke="black" points="1892.45,-136.67 1901.66,-131.44 1891.19,-129.79 1892.45,-136.67"/>
</g>
<!-- 4351035216 -->
<g id="node21" class="node">
<title>4351035216</title>
<polygon fill="none" stroke="black" points="2.25,-110.5 2.25,-146.5 195.75,-146.5 195.75,-110.5 2.25,-110.5"/>
<text xml:space="preserve" text-anchor="middle" x="18.5" y="-123.7" font-family="Times,serif" font-size="14.00">w2</text>
<polyline fill="none" stroke="black" points="34.75,-111 34.75,-146.5"/>
<text xml:space="preserve" text-anchor="middle" x="74.62" y="-123.7" font-family="Times,serif" font-size="14.00">data 1.0000</text>
<polyline fill="none" stroke="black" points="114.5,-111 114.5,-146.5"/>
<text xml:space="preserve" text-anchor="middle" x="155.12" y="-123.7" font-family="Times,serif" font-size="14.00">grad 0.0000</text>
</g>
<!-- 4351035216&#45;&gt;4349099088* -->
<g id="edge28" class="edge">
<title>4351035216&#45;&gt;4349099088*</title>
<path fill="none" stroke="black" d="M195.84,-128.5C205.14,-128.5 214.15,-128.5 222.32,-128.5"/>
<polygon fill="black" stroke="black" points="222.13,-132 232.13,-128.5 222.13,-125 222.13,-132"/>
</g>
<!-- 4351006544 -->
<g id="node22" class="node">
<title>4351006544</title>
<polygon fill="none" stroke="black" points="1683.75,-26.5 1683.75,-62.5 1864.5,-62.5 1864.5,-26.5 1683.75,-26.5"/>
<text xml:space="preserve" text-anchor="middle" x="1693.62" y="-39.7" font-family="Times,serif" font-size="14.00"> </text>
<polyline fill="none" stroke="black" points="1703.5,-27 1703.5,-62.5"/>
<text xml:space="preserve" text-anchor="middle" x="1743.38" y="-39.7" font-family="Times,serif" font-size="14.00">data 1.0000</text>
<polyline fill="none" stroke="black" points="1783.25,-27 1783.25,-62.5"/>
<text xml:space="preserve" text-anchor="middle" x="1823.88" y="-39.7" font-family="Times,serif" font-size="14.00">grad 0.0000</text>
</g>
<!-- 4351009232+ -->
<g id="node28" class="node">
<title>4351009232+</title>
<ellipse fill="none" stroke="black" cx="1929.75" cy="-71.5" rx="27" ry="18"/>
<text xml:space="preserve" text-anchor="middle" x="1929.75" y="-66.45" font-family="Times,serif" font-size="14.00">+</text>
</g>
<!-- 4351006544&#45;&gt;4351009232+ -->
<g id="edge16" class="edge">
<title>4351006544&#45;&gt;4351009232+</title>
<path fill="none" stroke="black" d="M1864.93,-60.28C1874.48,-61.96 1883.76,-63.59 1892.14,-65.07"/>
<polygon fill="black" stroke="black" points="1891.39,-68.49 1901.85,-66.77 1892.61,-61.59 1891.39,-68.49"/>
</g>
<!-- 4350514592 -->
<g id="node23" class="node">
<title>4350514592</title>
<polygon fill="none" stroke="black" points="1065,-54.5 1065,-90.5 1248.75,-90.5 1248.75,-54.5 1065,-54.5"/>
<text xml:space="preserve" text-anchor="middle" x="1076.38" y="-67.7" font-family="Times,serif" font-size="14.00">n</text>
<polyline fill="none" stroke="black" points="1087.75,-55 1087.75,-90.5"/>
<text xml:space="preserve" text-anchor="middle" x="1127.62" y="-67.7" font-family="Times,serif" font-size="14.00">data 0.8814</text>
<polyline fill="none" stroke="black" points="1167.5,-55 1167.5,-90.5"/>
<text xml:space="preserve" text-anchor="middle" x="1208.12" y="-67.7" font-family="Times,serif" font-size="14.00">grad 0.0000</text>
</g>
<!-- 4350514592&#45;&gt;4351021840* -->
<g id="edge23" class="edge">
<title>4350514592&#45;&gt;4351021840*</title>
<path fill="none" stroke="black" d="M1249.01,-88.6C1257.84,-90.16 1266.4,-91.67 1274.19,-93.04"/>
<polygon fill="black" stroke="black" points="1273.42,-96.46 1283.88,-94.75 1274.64,-89.57 1273.42,-96.46"/>
</g>
<!-- 4350514592+&#45;&gt;4350514592 -->
<g id="edge8" class="edge">
<title>4350514592+&#45;&gt;4350514592</title>
<path fill="none" stroke="black" d="M1029.28,-72.5C1036.42,-72.5 1044.61,-72.5 1053.32,-72.5"/>
<polygon fill="black" stroke="black" points="1053.06,-76 1063.06,-72.5 1053.06,-69 1053.06,-76"/>
</g>
<!-- 4351022000 -->
<g id="node25" class="node">
<title>4351022000</title>
<polygon fill="none" stroke="black" points="1683.75,-81.5 1683.75,-117.5 1864.5,-117.5 1864.5,-81.5 1683.75,-81.5"/>
<text xml:space="preserve" text-anchor="middle" x="1693.62" y="-94.7" font-family="Times,serif" font-size="14.00"> </text>
<polyline fill="none" stroke="black" points="1703.5,-82 1703.5,-117.5"/>
<text xml:space="preserve" text-anchor="middle" x="1743.38" y="-94.7" font-family="Times,serif" font-size="14.00">data 5.8284</text>
<polyline fill="none" stroke="black" points="1783.25,-82 1783.25,-117.5"/>
<text xml:space="preserve" text-anchor="middle" x="1823.88" y="-94.7" font-family="Times,serif" font-size="14.00">grad 0.0000</text>
</g>
<!-- 4351022000&#45;&gt;4351004240+ -->
<g id="edge19" class="edge">
<title>4351022000&#45;&gt;4351004240+</title>
<path fill="none" stroke="black" d="M1864.93,-115.28C1874.48,-116.96 1883.76,-118.59 1892.14,-120.07"/>
<polygon fill="black" stroke="black" points="1891.39,-123.49 1901.85,-121.77 1892.61,-116.59 1891.39,-123.49"/>
</g>
<!-- 4351022000&#45;&gt;4351009232+ -->
<g id="edge11" class="edge">
<title>4351022000&#45;&gt;4351009232+</title>
<path fill="none" stroke="black" d="M1864.93,-83.13C1874.48,-81.39 1883.76,-79.7 1892.14,-78.17"/>
<polygon fill="black" stroke="black" points="1892.64,-81.64 1901.85,-76.4 1891.39,-74.75 1892.64,-81.64"/>
</g>
<!-- 4351022000exp&#45;&gt;4351022000 -->
<g id="edge9" class="edge">
<title>4351022000exp&#45;&gt;4351022000</title>
<path fill="none" stroke="black" d="M1645.91,-99.5C1653.62,-99.5 1662.54,-99.5 1672.01,-99.5"/>
<polygon fill="black" stroke="black" points="1671.82,-103 1681.82,-99.5 1671.82,-96 1671.82,-103"/>
</g>
<!-- 4351009232 -->
<g id="node27" class="node">
<title>4351009232</title>
<polygon fill="none" stroke="black" points="1992.75,-53.5 1992.75,-89.5 2173.5,-89.5 2173.5,-53.5 1992.75,-53.5"/>
<text xml:space="preserve" text-anchor="middle" x="2002.62" y="-66.7" font-family="Times,serif" font-size="14.00"> </text>
<polyline fill="none" stroke="black" points="2012.5,-54 2012.5,-89.5"/>
<text xml:space="preserve" text-anchor="middle" x="2052.38" y="-66.7" font-family="Times,serif" font-size="14.00">data 6.8284</text>
<polyline fill="none" stroke="black" points="2092.25,-54 2092.25,-89.5"/>
<text xml:space="preserve" text-anchor="middle" x="2132.88" y="-66.7" font-family="Times,serif" font-size="14.00">grad 0.0000</text>
</g>
<!-- 4351009232&#45;&gt;4351011920**&#45;1 -->
<g id="edge24" class="edge">
<title>4351009232&#45;&gt;4351011920**&#45;1</title>
<path fill="none" stroke="black" d="M2173.95,-71.5C2204.24,-71.5 2236.44,-71.5 2260.56,-71.5"/>
<polygon fill="black" stroke="black" points="2260.53,-75 2270.53,-71.5 2260.53,-68 2260.53,-75"/>
</g>
<!-- 4351009232+&#45;&gt;4351009232 -->
<g id="edge10" class="edge">
<title>4351009232+&#45;&gt;4351009232</title>
<path fill="none" stroke="black" d="M1957.12,-71.5C1964.26,-71.5 1972.45,-71.5 1981.14,-71.5"/>
<polygon fill="black" stroke="black" points="1980.86,-75 1990.86,-71.5 1980.86,-68 1980.86,-75"/>
</g>
</g>
</svg>
